<!DOCTYPE svg PUBLIC "-//W3C//DTD SVG 20010904//EN" "http://www.w3.org/TR/2001/REC-SVG-20010904/DTD/svg10.dtd">
<svg version="1.0" xmlns="http://www.w3.org/2000/svg" width="960px" height="560px" viewBox="0 0 9600 5600" preserveAspectRatio="xMidYMid meet">
<g id="layer1" fill="#020202" stroke="none">
 <path d="M6330 3716 c-276 -58 -528 -231 -678 -465 -54 -84 -101 -194 -129 -300 -23 -84 -26 -116 -26 -256 0 -140 3 -172 26 -256 80 -301 273 -537 552 -675 170 -83 235 -98 450 -98 216 -1 288 14 460 99 278 136 472 373 552 674 23 84 26 116 26 256 0 140 -3 172 -26 256 -80 301 -274 538 -552 674 -161 79 -236 97 -430 101 -109 2 -181 -1 -225 -10z m450 -49 c368 -95 655 -393 731 -762 25 -120 25 -300 0 -420 -36 -177 -124 -344 -252 -479 -133 -141 -289 -233 -479 -284 -82 -22 -116 -25 -250 -25 -134 0 -168 3 -250 25 -372 100 -655 394 -731 763 -25 120 -25 300 0 420 74 357 355 659 704 755 115 32 183 39 312 35 83 -3 149 -11 215 -28z"/>
 <path d="M6215 3176 c-27 -7 -61 -18 -74 -25 -45 -25 -113 -95 -139 -146 l-27 -50 0 -300 0 -300 27 -50 c28 -53 96 -123 144 -148 57 -29 136 -37 354 -37 218 0 297 8 354 37 48 25 116 95 144 148 l27 50 0 300 0 300 -27 50 c-28 53 -96 123 -144 148 -16 8 -53 20 -82 26 -73 15 -492 13 -557 -3z m624 -129 c29 -20 50 -44 67 -80 23 -51 24 -58 24 -312 0 -254 -1 -261 -24 -312 -17 -36 -38 -60 -67 -80 l-42 -28 -276 -3 c-175 -2 -289 1 -312 7 -53 16 -89 48 -115 105 -23 50 -24 59 -24 311 0 253 1 261 24 311 23 49 58 83 107 104 14 5 144 8 310 7 l286 -2 42 -28z"/>
 <path d="M6432 2934 c-97 -26 -173 -97 -207 -193 -54 -154 45 -323 214 -367 55 -14 67 -14 122 0 103 27 179 96 214 195 53 151 -46 323 -211 366 -68 18 -64 18 -132 -1z m183 -128 c98 -75 98 -227 -1 -302 -34 -26 -45 -29 -114 -29 -69 0 -80 3 -114 29 -70 53 -94 150 -57 231 35 77 89 107 182 103 54 -3 73 -9 104 -32z"/>
 <path d="M6761 2404 c-18 -15 -31 -35 -31 -49 0 -22 50 -75 70 -75 20 0 70 53 70 75 0 22 -50 75 -70 75 -5 0 -22 -12 -39 -26z"/>
 </g>
<g id="layer2" fill="#797979" stroke="none">
 <path d="M6386 3710 c-235 -37 -426 -138 -594 -315 -191 -199 -282 -425 -282 -700 0 -275 91 -501 282 -700 144 -151 294 -241 488 -293 138 -37 362 -37 500 0 194 52 344 142 488 293 191 199 282 425 282 700 0 275 -91 501 -282 700 -198 208 -425 311 -703 320 -66 2 -147 0 -179 -5z m386 -551 c96 -21 162 -69 206 -153 l27 -51 0 -300 0 -300 -27 -51 c-44 -84 -110 -132 -206 -153 -69 -14 -475 -14 -544 0 -96 21 -162 69 -206 153 l-27 51 0 300 0 300 27 50 c42 81 105 130 191 151 67 16 486 18 559 3z"/>
 <path d="M6195 3086 c-51 -22 -97 -68 -121 -121 -23 -48 -24 -58 -24 -310 0 -253 1 -261 24 -310 28 -59 66 -98 118 -119 51 -22 561 -23 611 -3 52 22 98 68 123 122 23 48 24 58 24 310 0 252 -1 262 -24 310 -25 54 -71 100 -123 122 -46 19 -564 18 -608 -1z m399 -179 c59 -17 131 -88 155 -153 26 -69 27 -129 1 -196 -34 -89 -91 -139 -188 -163 -57 -15 -67 -15 -124 0 -60 15 -114 48 -150 90 -28 32 -58 122 -58 170 0 48 30 138 58 170 75 89 184 118 306 82z m234 -513 c30 -21 29 -59 -3 -80 -23 -15 -27 -15 -50 0 -32 21 -33 59 -3 80 12 9 25 16 28 16 3 0 16 -7 28 -16z"/>
 <path d="M6415 2844 c-140 -73 -165 -241 -50 -342 47 -42 74 -52 135 -52 61 0 88 10 135 52 71 62 93 153 56 233 -19 43 -78 100 -118 116 -38 14 -125 11 -158 -7z"/>
 </g>

</svg>