<!DOCTYPE svg PUBLIC "-//W3C//DTD SVG 20010904//EN" "http://www.w3.org/TR/2001/REC-SVG-20010904/DTD/svg10.dtd">
<svg version="1.0" xmlns="http://www.w3.org/2000/svg" width="960px" height="560px" viewBox="0 0 9600 5600" preserveAspectRatio="xMidYMid meet">
<g id="layer1" fill="#000000" stroke="none">
 <path d="M6330 3716 c-276 -58 -528 -231 -678 -465 -54 -84 -101 -194 -129 -300 -23 -84 -26 -116 -26 -256 0 -140 3 -172 26 -256 80 -301 273 -537 552 -675 170 -83 235 -98 450 -98 216 -1 288 14 460 99 278 136 472 373 552 674 23 84 26 116 26 256 0 140 -3 172 -26 256 -80 301 -274 538 -552 674 -161 79 -236 97 -430 101 -109 2 -181 -1 -225 -10z m400 -41 c159 -33 333 -119 461 -227 28 -23 80 -79 115 -123 297 -370 297 -890 0 -1260 -141 -176 -344 -299 -581 -352 -93 -20 -297 -20 -390 0 -168 37 -337 120 -466 229 -72 60 -171 187 -220 281 -158 304 -158 640 0 944 200 385 653 597 1081 508z"/>
 <path d="M6190 3181 c-73 -23 -154 -92 -193 -165 -21 -40 -22 -52 -22 -361 0 -363 -1 -356 86 -444 87 -87 82 -86 439 -86 357 0 352 -1 439 86 87 88 86 81 86 444 0 363 1 356 -86 444 -87 86 -84 86 -424 88 -165 1 -311 -2 -325 -6z m588 -116 c68 -21 116 -69 137 -137 11 -40 15 -103 15 -273 0 -254 -9 -303 -65 -360 -57 -56 -105 -65 -365 -65 -260 0 -308 9 -365 65 -56 57 -65 106 -65 360 0 255 9 303 65 360 57 56 99 64 361 64 180 1 242 -2 282 -14z"/>
 <path d="M6405 2938 c-80 -30 -153 -102 -180 -179 -20 -55 -19 -154 1 -213 22 -65 105 -148 170 -170 61 -20 147 -21 208 0 55 19 132 90 161 149 28 57 28 203 0 260 -25 51 -89 115 -140 140 -47 23 -174 30 -220 13z m183 -125 c41 -20 77 -66 91 -117 24 -90 -38 -191 -132 -215 -180 -45 -307 169 -177 299 59 59 138 71 218 33z"/>
 <path d="M6750 2410 c-45 -45 -13 -130 50 -130 41 0 70 31 70 75 0 44 -29 75 -70 75 -17 0 -39 -9 -50 -20z"/>
 </g>

</svg>